<svg id="Document_not_linked-02" data-name="Document not linked-02" xmlns="http://www.w3.org/2000/svg" width="179" height="179" viewBox="0 0 179 179">
  <rect id="Rectangle_4423" data-name="Rectangle 4423" width="179" height="179" fill="#f9f9f9"/>
  <path id="Path_36868" data-name="Path 36868" d="M254.035,87.522a7,7,0,1,1,4.716,8.7,7.164,7.164,0,0,1-4.716-8.7h0Z" transform="translate(-147.37 -46.457)" fill="#dfd3ce"/>
  <path id="Path_36869" data-name="Path 36869" d="M73.006,124.673a3.444,3.444,0,0,1-1.3,2.411c-1.181.868-1.059,1.617.029,2.456a2.581,2.581,0,0,1,1.108,1.918c.061,1.022-.09,1.967-1.149,2.427a2.276,2.276,0,0,1-2.794-.42,10.112,10.112,0,0,1-.749-.758c-.7-.9-1.344-.876-2.081,0a3.216,3.216,0,0,1-2.248,1.421,2.166,2.166,0,0,1-2.423-1.161,2.352,2.352,0,0,1,.432-2.794c1.759-1.869,1.735-1.89.061-3.7a2.532,2.532,0,0,1-.228-3.3,2.759,2.759,0,0,1,3.49-.179c.688.489,1.1,1.658,1.955,1.491.745-.147,1.348-1.006,2.012-1.552a2.393,2.393,0,0,1,2.578-.228,2.224,2.224,0,0,1,1.315,1.979v-.008Z" transform="translate(-33.195 -70.192)" fill="#dfd3ce"/>
  <path id="Path_36870" data-name="Path 36870" d="M293.926,142.759a2.422,2.422,0,0,1-2.309-3.279,3.561,3.561,0,0,1,.668-1,2.177,2.177,0,0,0,.024-3.258,2.519,2.519,0,0,1-.118-3.657c1.063-.961,2.248-.847,3.494.346a10.117,10.117,0,0,1,.859.863c.521.635.969.546,1.487-.024a7,7,0,0,1,1.735-1.462,2.314,2.314,0,0,1,2.847,3.547c-.1.118-.212.22-.318.326-1.821,1.8-1.808,1.535.016,3.368,1.193,1.2,1.23,2.4.179,3.446-1.075,1.067-2.26,1.043-3.486-.073-.073-.069-.143-.143-.216-.212a1.97,1.97,0,0,0-3.083.057,2.88,2.88,0,0,1-1.776,1.014h0Z" transform="translate(-169.717 -75.221)" fill="#dfd3ce"/>
  <path id="Path_36871" data-name="Path 36871" d="M101.09,64.481a7.44,7.44,0,0,1,8.435.81,7.287,7.287,0,0,1,2.668,7.889,7.392,7.392,0,0,1-5.791,5.649,7.288,7.288,0,0,1-5.311-.717,5.48,5.48,0,0,1,.766-.464,6.943,6.943,0,0,0,2.57-10.87c-.9-1.1-2.224-1.523-3.327-2.293h-.008Z" transform="translate(-56.885 -35.283)" fill="#32a7fa"/>
  <path id="Path_36872" data-name="Path 36872" d="M94.979,65.844c1.1.77,2.423,1.193,3.327,2.293a6.939,6.939,0,0,1-2.57,10.87,5.724,5.724,0,0,0-.766.464,7.634,7.634,0,0,1,.008-13.631h0Z" transform="translate(-50.773 -36.646)" fill="#dfd3ce"/>
  <path id="Path_36873" data-name="Path 36873" d="M246.456,91.268a7,7,0,1,1,6.875,7.115,7.166,7.166,0,0,1-6.875-7.115h0Z" transform="translate(-143.045 -47.564)" fill="#32a7fa"/>
  <path id="Path_36874" data-name="Path 36874" d="M144.877,184.242H176.31c0,4.374-.008,8.744.012,13.118.016,3.837,2.574,6.691,6.186,6.753,4.232.073,8.467.008,12.7,0,.236.2.134.464.134.7v17.741c-.387-.02-.778-.02-1.165-.061a23.356,23.356,0,0,0-10.4,1.336,26.99,26.99,0,0,0-6.728,3.755,2.069,2.069,0,0,0-1.784-.725q-11.784,0-23.569,0a3.263,3.263,0,0,0-.745.077,1.785,1.785,0,0,0-1.4,1.914,1.808,1.808,0,0,0,1.592,1.674,8.732,8.732,0,0,0,1.083.033q10.868.012,21.732.02a29.007,29.007,0,0,0-3.751,5.967,2.843,2.843,0,0,0-1.389-.187H152.053a7.625,7.625,0,0,0-.916.037,1.821,1.821,0,0,0-.257,3.56,3.711,3.711,0,0,0,1.157.11q8.467,0,16.938.008a2.708,2.708,0,0,1-.041.411,23.56,23.56,0,0,0-.517,8.357,24.794,24.794,0,0,0,2.655,8.536q-12.114,0-24.233.008a8.6,8.6,0,0,1-5.466-1.706,8.251,8.251,0,0,1-3.181-6.932V214.323c0-7.16-.012-14.316,0-21.475a8.215,8.215,0,0,1,4.7-7.844,12.636,12.636,0,0,0,1.987-.774Zm15.969,33.3c-2.92,0-5.844,0-8.764,0a5.237,5.237,0,0,0-1.157.118,1.806,1.806,0,0,0,.061,3.527,6.151,6.151,0,0,0,1.161.1q8.638.012,17.276,0a6.029,6.029,0,0,0,1.242-.114,1.8,1.8,0,0,0,.1-3.494,5.031,5.031,0,0,0-1.234-.138c-2.892-.012-5.787,0-8.679-.008Z" transform="translate(-78.874 -106.82)" fill="#00abe9"/>
  <path id="Path_36875" data-name="Path 36875" d="M231.953,184.26c.073.383.4.578.643.827q8.938,9.4,17.892,18.783c.073.077.13.175.2.261-4.236,0-8.467.073-12.7,0-3.613-.061-6.17-2.916-6.186-6.753-.02-4.374-.008-8.744-.012-13.118h.167Z" transform="translate(-134.354 -106.837)" fill="#d1d1d1"/>
  <path id="Path_36876" data-name="Path 36876" d="M193.577,289.651q-1.546,1.5-3.087,3-10.868-.012-21.732-.02a8.711,8.711,0,0,1-1.083-.033,1.826,1.826,0,0,1-.2-3.588,3.049,3.049,0,0,1,.745-.077q11.784,0,23.569,0a2.069,2.069,0,0,1,1.784.725Z" transform="translate(-95.404 -168.878)" fill="#d1d1d1"/>
  <path id="Path_36877" data-name="Path 36877" d="M177.358,266.008c2.892,0,5.787,0,8.679,0a5.009,5.009,0,0,1,1.234.138,1.8,1.8,0,0,1-.1,3.494,6.028,6.028,0,0,1-1.242.114q-8.638.012-17.277,0a6.151,6.151,0,0,1-1.161-.1,1.806,1.806,0,0,1-.061-3.527,5,5,0,0,1,1.157-.118c2.92-.008,5.844,0,8.765,0Z" transform="translate(-95.387 -155.292)" fill="#d1d1d1"/>
  <path id="Path_36878" data-name="Path 36878" d="M186.731,312.446c-.411,1.177-.827,2.354-1.238,3.531q-8.467,0-16.938-.008a3.7,3.7,0,0,1-1.157-.11,1.822,1.822,0,0,1,.257-3.56,6.877,6.877,0,0,1,.916-.037h16.771a2.751,2.751,0,0,1,1.389.187Z" transform="translate(-95.399 -182.706)" fill="#d1d1d1"/>
  <g id="Group_17303" data-name="Group 17303" transform="translate(44.868 52.679)">
    <path id="Path_36879" data-name="Path 36879" d="M126.575,153.253a6.326,6.326,0,0,1-4.517-1.686c-.538-.5-1.051-1.022-1.56-1.548a1.173,1.173,0,1,1,1.654-1.633c.595.566,1.124,1.2,1.763,1.711a3.848,3.848,0,0,0,5.441-5.364c-.542-.688-1.214-1.25-1.808-1.89a1.168,1.168,0,0,1-.208-1.478,1.117,1.117,0,0,1,1.263-.5,1.087,1.087,0,0,1,.456.236,15.816,15.816,0,0,1,2.26,2.321,5.98,5.98,0,0,1,.477,6.48,5.862,5.862,0,0,1-5.225,3.344Z" transform="translate(-112.991 -133.771)" fill="#dfd3ce"/>
    <path id="Path_36880" data-name="Path 36880" d="M105.06,129.731a3.876,3.876,0,0,0,1.21,2.806c.428.436.863.863,1.291,1.3a1.176,1.176,0,1,1-1.625,1.662,11.526,11.526,0,0,1-2.68-3.246,6.2,6.2,0,0,1,9.819-7.135c.578.529,1.128,1.091,1.674,1.654a1.163,1.163,0,1,1-1.633,1.641,23.511,23.511,0,0,0-1.812-1.735,3.851,3.851,0,0,0-6.239,3.046Z" transform="translate(-102.717 -123.506)" fill="#dfd3ce"/>
    <path id="Path_36881" data-name="Path 36881" d="M125.237,145.07a1.164,1.164,0,0,1-1.678.835.721.721,0,0,1-.175-.114c-1.446-1.364-2.859-2.761-4.211-4.219a1.086,1.086,0,0,1,.077-1.515,1.139,1.139,0,0,1,1.523-.077,5.892,5.892,0,0,1,.574.534c1.124,1.12,2.244,2.248,3.368,3.364a1.609,1.609,0,0,1,.521,1.189Z" transform="translate(-112.309 -133.119)" fill="#dfd3ce"/>
  </g>
  <g id="Group_17304" data-name="Group 17304" transform="translate(130.842 40.674)">
    <path id="Path_36882" data-name="Path 36882" d="M328.372,112.186a3.871,3.871,0,0,1-2.757-1.03c-.326-.305-.643-.623-.953-.945a.717.717,0,1,1,1.01-1c.362.346.684.729,1.075,1.047a2.348,2.348,0,0,0,3.323-3.27c-.33-.419-.741-.762-1.1-1.153a.714.714,0,0,1-.126-.9.678.678,0,0,1,.77-.3.692.692,0,0,1,.277.143,9.872,9.872,0,0,1,1.381,1.417,3.655,3.655,0,0,1,.293,3.955,3.58,3.58,0,0,1-3.189,2.04Z" transform="translate(-320.082 -100.297)" fill="#dfd3ce"/>
    <path id="Path_36883" data-name="Path 36883" d="M315.242,97.83a2.373,2.373,0,0,0,.741,1.711c.261.269.525.525.786.794a.738.738,0,0,1,.086,1.1.729.729,0,0,1-1.075-.086,6.985,6.985,0,0,1-1.637-1.979,3.781,3.781,0,0,1,5.991-4.354c.354.322.688.664,1.022,1.01a.71.71,0,1,1-1,1,14.3,14.3,0,0,0-1.108-1.059,2.35,2.35,0,0,0-3.808,1.861Z" transform="translate(-313.814 -94.03)" fill="#dfd3ce"/>
    <path id="Path_36884" data-name="Path 36884" d="M327.555,107.195a.71.71,0,0,1-1.022.509.476.476,0,0,1-.106-.069c-.88-.835-1.743-1.686-2.57-2.574a.663.663,0,0,1,.045-.924.691.691,0,0,1,.929-.045,3.286,3.286,0,0,1,.35.326c.684.684,1.368,1.373,2.057,2.053A.979.979,0,0,1,327.555,107.195Z" transform="translate(-319.668 -99.9)" fill="#dfd3ce"/>
  </g>
  <g id="Group_17309" data-name="Group 17309" transform="translate(89.396 115.788)">
    <g id="Group_17305" data-name="Group 17305">
      <circle id="Ellipse_687" data-name="Ellipse 687" cx="23.658" cy="23.658" r="23.658" fill="#fff"/>
      <path id="Path_36885" data-name="Path 36885" d="M297.829,321.424a2.231,2.231,0,0,1-4.46,0,2.163,2.163,0,0,1,2.216-2.15,2.206,2.206,0,0,1,2.24,2.154h0Z" transform="translate(-260.25 -302.649)" fill="#32a7fa"/>
      <path id="Path_36886" data-name="Path 36886" d="M238.169,323.587a2.175,2.175,0,0,1-2.22-2.154,2.144,2.144,0,0,1,2.2-2.163,2.158,2.158,0,1,1,.024,4.313h0Z" transform="translate(-226.216 -302.649)" fill="#32a7fa"/>
    </g>
    <g id="Group_17306" data-name="Group 17306" transform="translate(12.852 26.095)">
      <path id="Path_36887" data-name="Path 36887" d="M251.94,349.983c-1.206,0-2.35.02-3.49,0a2.521,2.521,0,0,1-2.521-2.456,2.455,2.455,0,0,1,2.33-2.627c2.387-.077,4.777-.057,7.164,0a2.376,2.376,0,0,1,2.126,1.556c-2.749-.159-4.761.762-5.612,3.535Z" transform="translate(-244.982 -343.904)" fill="#d1d1d1"/>
      <path id="Path_36888" data-name="Path 36888" d="M248.393,349.565c-.448,0-.892,0-1.344-.012a3.458,3.458,0,0,1-3.441-3.372,3.4,3.4,0,0,1,3.246-3.6c2.1-.069,4.39-.069,7.217,0a3.266,3.266,0,0,1,2.953,2.089l.7,1.446-1.6-.094c-2.562-.151-4,.733-4.655,2.867l-.2.668h-.7c-.375,0-.741,0-1.1,0s-.717,0-1.067,0Zm1.8-5.148c-1.173,0-2.248.016-3.279.049a1.514,1.514,0,0,0-1.417,1.654,1.578,1.578,0,0,0,1.6,1.539c.77.02,1.539.016,2.354.008h.444a5.267,5.267,0,0,1,3.36-3.217C252.16,344.429,251.146,344.417,250.193,344.417Z" transform="translate(-243.606 -342.533)" fill="#32a7fa"/>
    </g>
    <g id="Group_17307" data-name="Group 17307" transform="translate(20.278 29.646)">
      <path id="Path_36889" data-name="Path 36889" d="M265.69,357.047c2.81.236,4.753-.733,5.629-3.441,1.287,0,2.586-.065,3.873.02a2.523,2.523,0,0,1-.045,4.993c-1.214.09-2.44.045-3.657.053-1.14,0-2.285.016-3.425-.008a2.5,2.5,0,0,1-2.37-1.613Z" transform="translate(-264.122 -352.633)" fill="#d1d1d1"/>
      <path id="Path_36890" data-name="Path 36890" d="M267.416,358.24c-.55,0-1.1,0-1.658-.016a3.443,3.443,0,0,1-3.2-2.15l-.717-1.491,1.645.139c2.521.212,3.955-.648,4.647-2.79l.212-.656h.688c.383,0,.778,0,1.161-.012.9-.012,1.841-.029,2.773.033a3.466,3.466,0,0,1-.037,6.879c-.925.069-1.849.061-2.745.057-.326,0-.652,0-.977,0h-.436c-.448,0-.9.008-1.36.008Zm-1.071-1.894c.81.008,1.625,0,2.419,0H270.2c.9,0,1.743.012,2.59-.053a1.583,1.583,0,0,0,.053-3.108c-.859-.057-1.755-.041-2.623-.029-.175,0-.35,0-.529.008a5.243,5.243,0,0,1-3.352,3.177Z" transform="translate(-261.84 -351.252)" fill="#32a7fa"/>
    </g>
    <g id="Group_17308" data-name="Group 17308" transform="translate(21.818 30.525)">
      <path id="Path_36891" data-name="Path 36891" d="M265.88,355.082c.656-1.3,1.576-1.678,3.372-1.446C268.857,354.846,267.766,355.327,265.88,355.082Z" transform="translate(-265.774 -353.506)" fill="#d1d1d1"/>
      <path id="Path_36892" data-name="Path 36892" d="M266.61,355.116a7.145,7.145,0,0,1-.9-.061l-.094-.012.045-.086c.668-1.32,1.6-1.723,3.441-1.482l.081.012-.024.077a2.337,2.337,0,0,1-2.55,1.556Zm-.782-.183c1.739.2,2.778-.232,3.177-1.336C267.326,353.393,266.447,353.76,265.828,354.933Z" transform="translate(-265.62 -353.409)" fill="#d1d1d1"/>
    </g>
  </g>
</svg>
