<?xml version="1.0" encoding="utf-8"?>
<!-- Generator: Adobe Illustrator 26.5.0, SVG Export Plug-In . SVG Version: 6.00 Build 0)  -->
<svg version="1.1" id="Layer_1" xmlns="http://www.w3.org/2000/svg" xmlns:xlink="http://www.w3.org/1999/xlink" x="0px" y="0px"
	 viewBox="0 0 240 150" style="enable-background:new 0 0 240 150;" xml:space="preserve">
<style type="text/css">
	.st0{fill:#D1D1D1;}
	.st1{fill:#32A7FA;}
	.st2{fill:#FFFFFF;}
</style>
<g>
	<path id="Path_36814" class="st0" d="M54.6,35.9c-0.1,1.5-0.8,2.9-2,3.9c-1.8,1.4-1.6,2.6,0,4c1,0.7,1.6,1.9,1.7,3.1
		c0.1,1.6-0.1,3.2-1.7,3.9c-1.4,0.8-3.2,0.6-4.2-0.7c-0.4-0.4-0.8-0.8-1.1-1.2c-1.1-1.4-2-1.4-3.2,0c-0.9,1.1-1.9,2.2-3.4,2.3
		s-3-0.2-3.7-1.9c-0.8-1.5-0.5-3.3,0.7-4.5c2.7-3,2.6-3,0.1-6c-1.3-1.5-1.5-3.7-0.3-5.3c1.2-1.4,3.7-1.5,5.3-0.3
		c1,0.8,1.7,2.7,3,2.4c1.1-0.2,2-1.6,3.1-2.5c1.1-0.9,2.7-1.1,3.9-0.4C54,33.3,54.4,34.5,54.6,35.9L54.6,35.9z"/>
	<path id="Path_36815" class="st0" d="M224,95.8c-2.1,0-3.8-1.8-3.8-3.9c0-0.5,0.1-0.9,0.3-1.3c0.2-0.6,0.6-1.1,1-1.6
		c1.5-1.8,1.5-3.5,0-5.2c-1.7-1.9-1.7-4.4-0.2-5.8c1.6-1.5,3.4-1.4,5.3,0.6c0.5,0.4,0.9,0.9,1.3,1.4c0.8,1,1.5,0.9,2.3,0
		c0.8-0.9,1.6-1.7,2.7-2.3c1.9-1.1,3.3-0.5,4.5,1c1.1,1.4,1.1,3.3-0.1,4.6c-0.1,0.2-0.3,0.4-0.5,0.5c-2.8,2.9-2.8,2.5,0,5.4
		c1.8,1.9,1.9,3.8,0.3,5.5c-1.6,1.7-3.5,1.7-5.3-0.1c-0.1-0.1-0.2-0.2-0.3-0.3c-1.5-1.6-3.1-1.5-4.7,0.1
		C226.1,95,225.1,95.6,224,95.8L224,95.8z"/>
	<g id="Group_16818" transform="translate(40.725 123.186)">
		<path id="Path_36816" class="st1" d="M8.3,3.5c3.8-2.3,8.7-1.8,12,1.2c3.6,3,4.8,7.1,3.8,11.8c-0.8,4.2-4,7.5-8.2,8.4
			c-2.6,0.7-5.3,0.3-7.5-1.1c0.3-0.3,0.7-0.5,1.1-0.7c6.1-2.5,7.8-10.8,3.6-16.2C11.8,5.3,9.9,4.6,8.3,3.5L8.3,3.5z"/>
		<path id="Path_36817" class="st1" d="M8.3,3.5c1.6,1.1,3.4,1.8,4.7,3.4c4.2,5.4,2.5,13.6-3.6,16.2c-0.4,0.2-0.7,0.4-1.1,0.7
			c-3.8-1.9-6.1-5.9-5.9-10.2C2.2,9.4,4.5,5.4,8.3,3.5L8.3,3.5z"/>
	</g>
	<path id="Path_36818" class="st1" d="M202.7,62c0.2-6.3,5.2-11.5,11-11.5c6,0.1,11.2,5.6,11,11.8c-0.2,6.3-5.3,11.4-11.2,11.3
		C207.6,73.6,202.5,68.1,202.7,62L202.7,62z"/>
	<path id="Path_36809" class="st0" d="M163.1,9.4h-60c-5.5,0-8.6,2.9-9.1,8.3c-0.1,2-1.8,3.4-3.8,3.3c-1.9-0.1-3.4-1.7-3.4-3.6
		c-0.1-7.9,6.7-14.8,15-14.9c6.2-0.1,12.5,0,18.7,0c15.2,0,30.4,0,45.7,0c13.7,0,24.7,8.9,27.3,22c0.3,1.6,0.4,3.2,0.4,4.8
		c0.2,1.6-1,3-2.6,3.2c-0.3,0.1-0.7,0.2-1,0.2c-4.8,0-9.7,0.3-14.4-0.3c-7.3-0.9-12.8-7-12.9-14.3C163,15.2,163.1,12.4,163.1,9.4
		L163.1,9.4z M170.3,9.9c0,2.9-0.2,5.9,0.1,8.8c0.4,3.8,3.5,6.7,7.3,6.9c2.9,0.2,5.8,0,8.7,0C185.9,18.5,177.9,10.6,170.3,9.9
		L170.3,9.9z"/>
	<path id="Path_36810" class="st0" d="M194,84.3v37c0,9.7-6.5,16.1-16.4,16.1c-14.6,0-29.2,0-43.8,0c-1.7,0-3-0.4-3.8-2
		c-0.8-1.7-0.1-3.8,1.6-4.6c0.4-0.2,0.8-0.3,1.3-0.3c0.5,0,1.1,0,1.6,0h43.2c5.8,0,9.2-3.3,9.2-8.9V46.5c0-3.1,1.3-4.7,3.6-4.6
		c2.3,0,3.5,1.6,3.5,4.6L194,84.3L194,84.3z"/>
	<path id="Path_36811" class="st1" d="M94,39.2c0,1,0,1.9,0,2.9c-0.1,1.9-1.8,3.4-3.7,3.3c-1.8-0.1-3.3-1.6-3.4-3.4
		c-0.1-2-0.1-4,0-6c0.1-2,1.7-3.5,3.7-3.4c1.9,0.1,3.4,1.6,3.4,3.5C94,37.1,94,38.1,94,39.2L94,39.2z"/>
	<path id="Path_36812" class="st1" d="M126.1,39c0,1,0.1,2,0,3.1c-0.1,1.9-1.7,3.4-3.6,3.3c0,0,0,0,0,0c-1.9,0-3.4-1.4-3.5-3.3
		c-0.1-2.1-0.1-4.2,0-6.3c0.2-1.9,1.9-3.4,3.8-3.2c1.7,0.1,3.1,1.5,3.3,3.2C126.2,36.9,126.1,39,126.1,39L126.1,39L126.1,39z"/>
	<path id="Path_36958" class="st0" d="M18.9,77.3h146.7c7.1-0.1,12.9,5.6,13,12.7v7.5c-0.1,7.1-5.9,12.8-13,12.7H18.9
		c-7.1,0.1-12.9-5.6-13-12.7V90C5.9,82.9,11.8,77.2,18.9,77.3z"/>
	<path id="Path_36799" class="st1" d="M153.4,100.3c-1.5,0-2.7-1.1-2.7-2.5c0-0.3,0-0.7,0.2-1c0.2-0.4,0.4-0.8,0.7-1.1
		c1-0.8,1.1-2.3,0.3-3.3c-0.1-0.1-0.2-0.2-0.2-0.2c-1.2-1.3-1.3-3-0.1-4c1.2-1,2.5-0.9,3.9,0.4c0.3,0.3,0.7,0.6,0.9,0.9
		c0.6,0.7,1.1,0.6,1.6,0c0.5-0.6,1.2-1.2,1.9-1.6c1.1-0.7,2.5-0.4,3.2,0.7c0,0,0,0,0,0c0.8,0.9,0.8,2.3-0.1,3.1
		c-0.1,0.1-0.2,0.2-0.4,0.4c-2,1.9-2,1.7,0,3.6c1.3,1.3,1.4,2.6,0.2,3.7c-1.2,1.2-2.5,1.1-3.9-0.1c-0.1-0.1-0.2-0.2-0.2-0.2
		c-0.8-0.9-2.2-1-3.1-0.3c-0.1,0.1-0.2,0.2-0.3,0.3C154.9,99.8,154.2,100.2,153.4,100.3L153.4,100.3z"/>
	<g id="Group_16820" transform="translate(0 75.248)">
		<path id="Path_36794" class="st1" d="M35.9,2.2H8.7C5.2,2.2,2.3,5,2.3,8.5v20.3c0,3.5,2.9,6.4,6.5,6.3h27.2V2.2L35.9,2.2L35.9,2.2
			z"/>
		<path id="Path_36802" class="st2" d="M28.4,17c0.1,3.8-3,7-6.8,7.1c-0.5,0-1,0-1.5-0.1c-0.8-0.2-1.7,0-2.2,0.7
			c-0.5,0.6-1.2,1.2-1.8,1.7c-1.1,1-2.8,0.8-3.8-0.2c-0.9-1.1-0.8-2.7,0.3-3.7c0.5-0.5,1-1,1.6-1.5c0.7-0.5,1-1.3,0.7-2.1
			c-0.7-2.5,0.3-5.2,2.4-6.7c2.1-1.7,5.1-2,7.4-0.6C26.9,12.4,28.3,14.6,28.4,17z M21.4,15.9C20.5,16,20,16.5,20,17.4
			c0,0.7,0.5,1.3,1.2,1.3c0.1,0,0.1,0,0.2,0c0.7,0.1,1.4-0.4,1.5-1.1c0-0.1,0-0.2,0-0.3C22.9,16.3,22.3,16,21.4,15.9L21.4,15.9z"/>
		<path id="Path_36803" class="st1" d="M21.4,15.9c0.9,0.1,1.5,0.5,1.5,1.4c0.1,0.7-0.5,1.3-1.2,1.4c-0.1,0-0.2,0-0.3,0
			c-0.7,0.1-1.3-0.4-1.4-1.1c0-0.1,0-0.1,0-0.2C20,16.5,20.5,16,21.4,15.9L21.4,15.9z"/>
	</g>
	<path id="Rectangle_4243" class="st1" d="M98.5,60h16.4c2.2,0,4,1.8,4,4l0,0c0,2.2-1.8,4-4,4H98.5c-2.2,0-4-1.8-4-4l0,0
		C94.5,61.8,96.3,60,98.5,60z"/>
</g>
</svg>
